<?xml version="1.0" encoding="utf-8"?>
<!-- Generator: Adobe Illustrator 16.0.0, SVG Export Plug-In . SVG Version: 6.00 Build 0)  -->
<!DOCTYPE svg PUBLIC "-//W3C//DTD SVG 1.1//EN" "http://www.w3.org/Graphics/SVG/1.1/DTD/svg11.dtd">
<svg version="1.1" id="Layer_1" xmlns="http://www.w3.org/2000/svg" xmlns:xlink="http://www.w3.org/1999/xlink" x="0px" y="0px"
	 width="48px" height="48px" viewBox="0 0 48 48" enable-background="new 0 0 48 48" xml:space="preserve">
<path fill="none" d="M0,0h48v48H0V0z"/>
<path fill="#FFFFFF" d="M43.247,10.794h-8.506V7.406c0-1.15-0.933-2.083-2.082-2.083H15.336c-1.15,0-2.083,0.932-2.083,2.083v3.389
	H4.754c-1.15,0-2.083,0.933-2.083,2.083v27.717c0,1.15,0.933,2.083,2.083,2.083h38.493c1.15,0,2.082-0.933,2.082-2.083V12.877
	C45.329,11.727,44.397,10.794,43.247,10.794z M15.669,8.799c0-0.9,0.72-1.629,1.607-1.629h13.365c0.888,0,1.607,0.729,1.607,1.629
	v1.995h-16.58V8.799z M42.886,38.169c0,1.201-0.919,2.175-2.051,2.175H7.054c-1.132,0-2.05-0.974-2.05-2.175v-8.807h13.457
	c0.015,3.039,2.482,5.554,5.525,5.554c3.049,0,5.521-2.508,5.526-5.554h13.373V38.169z M42.886,26.735h-15.97v2.614
	c-0.024,1.58-1.359,2.9-2.945,2.9s-2.958-1.32-2.983-2.9v-2.614H5.004V15.08c0-1.201,0.918-2.175,2.05-2.175h33.781
	c1.132,0,2.051,0.974,2.051,2.175V26.735z"/>
</svg>
