<?xml version="1.0" encoding="utf-8"?>
<!-- Generator: Adobe Illustrator 16.0.0, SVG Export Plug-In . SVG Version: 6.00 Build 0)  -->
<!DOCTYPE svg PUBLIC "-//W3C//DTD SVG 1.1//EN" "http://www.w3.org/Graphics/SVG/1.1/DTD/svg11.dtd">
<svg version="1.1" id="Layer_1" xmlns="http://www.w3.org/2000/svg" xmlns:xlink="http://www.w3.org/1999/xlink" x="0px" y="0px"
	 width="512px" height="512px" viewBox="0 0 512 512" enable-background="new 0 0 512 512" xml:space="preserve">
<path fill="#4DB848" d="M224.893,109.73c-68.617,0-124.241,55.625-124.241,124.242c0,68.62,55.625,124.241,124.241,124.241
	c68.614,0,124.239-55.621,124.239-124.241C349.132,165.355,293.507,109.73,224.893,109.73z M224.893,330.904
	c-53.501,0-96.873-43.371-96.873-96.873c0-53.503,43.372-96.873,96.873-96.873s96.87,43.371,96.87,96.873
	S278.394,330.904,224.893,330.904z"/>
<path fill="#4DB848" d="M478.418,427.108l-90.703-88.774c19.048-29.928,30.109-65.436,30.109-103.537
	c0-106.663-86.469-193.129-193.13-193.129c-106.662,0-193.129,86.466-193.129,193.129s86.467,193.129,193.129,193.129
	c38.846,0,74.989-11.502,105.274-31.236l91.027,89.088c2.65,2.595,6.897,2.547,9.491-0.101l48.03-49.078
	C481.113,433.953,481.067,429.701,478.418,427.108z M224.696,401.7c-92.178,0-166.903-74.726-166.903-166.903
	S132.518,67.894,224.696,67.894s166.902,74.725,166.902,166.903S316.873,401.7,224.696,401.7z M424.373,451.874l-73.217-71.725
	c16.207-10.338,21.672-22.114,21.672-22.114l73.212,71.722L424.373,451.874z"/>
</svg>
