<?xml version="1.0" encoding="utf-8"?>
<!-- Generator: Adobe Illustrator 16.0.0, SVG Export Plug-In . SVG Version: 6.00 Build 0)  -->
<!DOCTYPE svg PUBLIC "-//W3C//DTD SVG 1.1//EN" "http://www.w3.org/Graphics/SVG/1.1/DTD/svg11.dtd">
<svg version="1.1" id="Layer_1" xmlns="http://www.w3.org/2000/svg" xmlns:xlink="http://www.w3.org/1999/xlink" x="0px" y="0px"
	 width="512px" height="512px" viewBox="0 0 512 512" enable-background="new 0 0 512 512" xml:space="preserve">
<g>
	<path fill="#505050" d="M156.989,223.487h-18.392c-11.542,0-20.9,9.357-20.9,20.9v10.868c0,11.543,9.358,20.901,20.9,20.901h18.392
		c11.543,0,20.901-9.358,20.901-20.901v-10.868C177.89,232.844,168.532,223.487,156.989,223.487z"/>
	<path fill="#505050" d="M156.989,327.152h-18.392c-11.542,0-20.9,9.358-20.9,20.9v10.868c0,11.543,9.358,20.9,20.9,20.9h18.392
		c11.543,0,20.901-9.357,20.901-20.9v-10.868C177.89,336.511,168.532,327.152,156.989,327.152z"/>
	<path fill="#505050" d="M264.556,223.487h-18.391c-11.543,0-20.901,9.357-20.901,20.9v10.868c0,11.543,9.358,20.901,20.901,20.901
		h18.391c11.543,0,20.901-9.358,20.901-20.901v-10.868C285.457,232.844,276.099,223.487,264.556,223.487z"/>
	<path fill="#505050" d="M264.556,327.152h-18.391c-11.543,0-20.901,9.358-20.901,20.9v10.868c0,11.543,9.358,20.9,20.901,20.9
		h18.391c11.543,0,20.901-9.357,20.901-20.9v-10.868C285.457,336.511,276.099,327.152,264.556,327.152z"/>
	<path fill="#505050" d="M373.517,223.487h-18.393c-11.542,0-20.9,9.357-20.9,20.9v10.868c0,11.543,9.358,20.901,20.9,20.901h18.393
		c11.543,0,20.9-9.358,20.9-20.901v-10.868C394.417,232.844,385.06,223.487,373.517,223.487z"/>
	<path fill="#505050" d="M373.517,327.152h-18.393c-11.542,0-20.9,9.358-20.9,20.9v10.868c0,11.543,9.358,20.9,20.9,20.9h18.393
		c11.543,0,20.9-9.357,20.9-20.9v-10.868C394.417,336.511,385.06,327.152,373.517,327.152z"/>
	<path fill="#505050" d="M449.176,94.323h-45.98v17.974c0,11.543-9.358,20.9-20.9,20.9h-42.637c-11.543,0-20.9-9.357-20.9-20.9
		V94.323H190.012v17.974c0,11.543-9.358,20.9-20.9,20.9h-42.637c-11.543,0-20.9-9.357-20.9-20.9V94.323H62.938
		c-11.543,0-20.9,9.357-20.9,20.9V447.12c0,11.543,9.357,20.9,20.9,20.9h386.238c11.542,0,20.9-9.357,20.9-20.9V115.223
		C470.076,103.68,460.718,94.323,449.176,94.323z M437.472,422.264c0,8.418-7.968,15.243-17.798,15.243H90.768
		c-9.829,0-17.798-6.825-17.798-15.243V180.208c0-8.418,7.97-15.243,17.798-15.243h328.906c9.83,0,17.798,6.824,17.798,15.243
		V422.264z"/>
	<path fill="#505050" d="M133.595,120.239h26.931c7.292,0,13.202-4.847,13.202-10.825V58.75c0-5.979-5.911-10.826-13.202-10.826
		h-26.931c-7.292,0-13.203,4.847-13.203,10.826v50.664C120.392,115.392,126.303,120.239,133.595,120.239z"/>
	<path fill="#505050" d="M347.426,120.239h26.932c7.292,0,13.202-4.847,13.202-10.825V58.75c0-5.979-5.91-10.826-13.202-10.826
		h-26.932c-7.291,0-13.202,4.847-13.202,10.826v50.664C334.224,115.392,340.135,120.239,347.426,120.239z"/>
</g>
</svg>
