<?xml version="1.0" encoding="utf-8"?>
<!-- Generator: Adobe Illustrator 16.0.0, SVG Export Plug-In . SVG Version: 6.00 Build 0)  -->
<!DOCTYPE svg PUBLIC "-//W3C//DTD SVG 1.1//EN" "http://www.w3.org/Graphics/SVG/1.1/DTD/svg11.dtd">
<svg version="1.1" id="Layer_1" xmlns="http://www.w3.org/2000/svg" xmlns:xlink="http://www.w3.org/1999/xlink" x="0px" y="0px"
	 width="512px" height="512px" viewBox="0 0 512 512" enable-background="new 0 0 512 512" xml:space="preserve">
<g>
	<path fill="#505050" d="M410.484,101.573C369.166,60.255,314.23,37.5,255.797,37.5c-58.433,0-113.368,22.755-154.687,64.073
		c-41.318,41.318-64.073,96.254-64.073,154.687s22.755,113.369,64.073,154.687c41.318,41.318,96.254,64.073,154.687,64.073
		c58.434,0,113.369-22.755,154.688-64.073s64.073-96.254,64.073-154.687S451.803,142.892,410.484,101.573z M389.741,390.204
		c-35.777,35.777-83.346,55.48-133.944,55.48c-50.597,0-98.166-19.703-133.943-55.48c-35.778-35.778-55.481-83.346-55.481-133.944
		c0-50.597,19.704-98.166,55.481-133.943c35.777-35.778,83.346-55.481,133.943-55.481c50.599,0,98.167,19.704,133.944,55.481
		c35.777,35.777,55.48,83.346,55.48,133.943C445.222,306.858,425.519,354.426,389.741,390.204z"/>
	<path fill="#505050" d="M335.055,181.986l-65.428,52.68V123.761c0-7.638-6.19-13.829-13.83-13.829
		c-7.638,0-13.829,6.191-13.829,13.829v140.042c0,7.639,6.191,13.83,13.829,13.83c0.147,0,0.29-0.018,0.435-0.021
		c2.18,0.094,4.284-0.424,6.07-1.605c1.424-0.761,2.69-1.77,3.762-2.96l86.339-69.516c4.875-3.925,4.944-11.93,0.154-17.879
		C347.767,179.702,339.931,178.061,335.055,181.986z"/>
</g>
</svg>
