<?xml version="1.0" encoding="utf-8"?>
<!-- Generator: Adobe Illustrator 16.0.0, SVG Export Plug-In . SVG Version: 6.00 Build 0)  -->
<!DOCTYPE svg PUBLIC "-//W3C//DTD SVG 1.1//EN" "http://www.w3.org/Graphics/SVG/1.1/DTD/svg11.dtd">
<svg version="1.1" id="Layer_1" xmlns="http://www.w3.org/2000/svg" xmlns:xlink="http://www.w3.org/1999/xlink" x="0px" y="0px"
	 width="48px" height="48px" viewBox="0 0 48 48" enable-background="new 0 0 48 48" xml:space="preserve">
<path fill="none" d="M0,0h48v48H0V0z"/>
<g>
	<path fill="#FFFFFF" d="M46.237,24.404c0,0.811-0.657,1.469-1.468,1.469H3.23c-0.811,0-1.468-0.658-1.468-1.469v-0.807
		c0-0.811,0.657-1.468,1.468-1.468H44.77c0.811,0,1.468,0.657,1.468,1.468V24.404z"/>
	<path fill="#FFFFFF" d="M46.237,37.469c0,0.811-0.657,1.467-1.468,1.467H3.23c-0.811,0-1.468-0.656-1.468-1.467V36.66
		c0-0.811,0.657-1.467,1.468-1.467H44.77c0.811,0,1.468,0.656,1.468,1.467V37.469z"/>
	<path fill="#FFFFFF" d="M46.237,11.341c0,0.811-0.657,1.467-1.468,1.467H3.23c-0.811,0-1.468-0.657-1.468-1.467v-0.808
		c0-0.811,0.657-1.468,1.468-1.468H44.77c0.811,0,1.468,0.657,1.468,1.468V11.341z"/>
</g>
</svg>
