<?xml version="1.0" encoding="utf-8"?>
<!-- Generator: Adobe Illustrator 16.0.0, SVG Export Plug-In . SVG Version: 6.00 Build 0)  -->
<!DOCTYPE svg PUBLIC "-//W3C//DTD SVG 1.1//EN" "http://www.w3.org/Graphics/SVG/1.1/DTD/svg11.dtd">
<svg version="1.1" id="Layer_1" xmlns="http://www.w3.org/2000/svg" xmlns:xlink="http://www.w3.org/1999/xlink" x="0px" y="0px"
	 width="512px" height="512px" viewBox="0 0 512 512" enable-background="new 0 0 512 512" xml:space="preserve">
<g>
	<path fill="#4DB848" d="M389.599,70.833H255.216v0.002H121.833L18.833,256v172.502c2,11,11.667,10.667,11.667,10.667h225.716
		v-0.002h224.716c0,0,9.667,0.333,11.667-10.667V255.998L389.599,70.833z M137.834,99.167h118.382v-0.002h117.382l79.334,147.958
		l-122.666,0.043c0,0-9.348,1.418-10.668,10.664c-1.332,9.336-1.332,9.336-1.332,9.336s-5.47,57.271-62.266,55.678v-0.009
		c-0.079,0.003-0.154,0.002-0.233,0.005c-0.113-0.004-0.222-0.003-0.335-0.007v0.013c-56.795,1.593-62.265-55.678-62.265-55.678
		s0,0-1.333-9.336c-1.32-9.246-10.667-10.665-10.667-10.665L58.5,247.125L137.834,99.167z M464.932,410.5h-209.5v0.002H46.5V275.835
		H164c9.203,76.042,86.913,75.293,91.763,75.172c5.576,0.125,82.514,0.472,91.669-75.174h117.5V410.5z"/>
	<path fill="#4DB848" d="M189.716,152.833h134c5.339,0,9.667-4.328,9.667-9.667c0-5.339-4.328-9.667-9.667-9.667h-134
		c-5.338,0-9.667,4.328-9.667,9.667C180.05,148.504,184.378,152.833,189.716,152.833z"/>
	<path fill="#4DB848" d="M297.716,209.499h51c5.339,0,9.667-4.328,9.667-9.667c0-5.339-4.328-9.667-9.667-9.667h-51h-83h-51
		c-5.338,0-9.667,4.328-9.667,9.667c0,5.338,4.328,9.667,9.667,9.667h51H297.716z"/>
</g>
</svg>
