<?xml version="1.0" encoding="utf-8"?>
<!-- Generator: Adobe Illustrator 16.0.0, SVG Export Plug-In . SVG Version: 6.00 Build 0)  -->
<!DOCTYPE svg PUBLIC "-//W3C//DTD SVG 1.1//EN" "http://www.w3.org/Graphics/SVG/1.1/DTD/svg11.dtd">
<svg version="1.1" id="Layer_1" xmlns="http://www.w3.org/2000/svg" xmlns:xlink="http://www.w3.org/1999/xlink" x="0px" y="0px"
	 width="365.641px" height="108.279px" viewBox="12.875 4.471 365.641 108.279"
	 enable-background="new 12.875 4.471 365.641 108.279" xml:space="preserve">
<g>
	<path fill="#52AF32" d="M51.335,24.045l7.114,0.085c0,0,6.061-9.644,3.896-16.11c-0.741-0.65-1.083-3.417-10.757-3.544
		C41.92,4.35,41.508,7.104,40.752,7.737c-2.338,6.413,3.47,16.214,3.47,16.214L51.335,24.045z"/>
	<path fill="#448F29" d="M38.134,86.249c-1.992-1.366-5.451-2.449-5.812-2.497c-4.527-0.179-8.456,0.171-11.582,0.665
		c-4.992,0.79-7.927,1.963-7.864,1.999c0.907,0.345,1.575,1.646,2.039,2.427c1.87,3.131,2.505,6.924,3.778,10.325
		c0.517,1.363,0.937,2.986,1.727,4.225c0.423,0.672,1.459,1.294,2.079,1.794c0.772,0.641,1.572,1.245,2.395,1.82
		c0.484,0.341,0.979,0.656,1.47,0.983c0.841,0.556,1.6,1.087,2.463,1.606c4.831-2.457,7.351-7.175,8.947-11.651
		c1.89-5.3,1.828-10.021,1.825-10.236l-0.181-0.351l0,0c-0.202-0.212-0.399-0.4-0.57-0.562c-0.009-0.007-0.021-0.018-0.035-0.027"/>
	<path fill="#52AF32" d="M39.382,87.777l0.021-0.296l4.681-61.033l7.285,0.1l7.284,0.093l3.204,63.592
		c0.378,7.521-1.872,12.634-5.141,16.105c-1.87,1.979-4.071,3.417-6.305,4.473c-0.938,0.442-1.876,0.817-2.803,1.134l-1.389,0.332
		c-3.545,0.779-5.534,0.445-8.426,0.081c-0.102-0.018-0.196-0.026-0.293-0.04c-4.028-0.549-6.928-1.757-7.219-1.883
		c-0.212-0.117-0.421-0.229-0.63-0.35c-0.312-0.18-0.618-0.37-0.929-0.562c4.83-2.456,7.44-7.178,8.847-11.652
		c1.924-5.145,1.65-8.138,1.752-8.415L39.382,87.777z"/>
	<g>
		<path fill="#52AF32" d="M82.22,99.687c0,2-1,3-3,3h-11.5c-2,0-3-1-3-3V36.087c0-2,1-3,3-3h11.5c2,0,3,1,3,3V99.687z"/>
		<path fill="#52AF32" d="M123.819,74.087c0,2-1,3-3,3h-16.8c-1.334,0-2,0.667-2,2v20.601c0,2-1,3-3,3h-11.5c-2,0-3-1-3-3V46.087
			c0-3.532,1.266-6.583,3.8-9.149c2.533-2.565,5.6-3.851,9.2-3.851h23.3c2,0,3,1,3,3v11.5c0,2-1,3-3,3h-16.8c-1.334,0-2,0.667-2,2v5
			c0,1.334,0.666,2,2,2h16.8c2,0,3,1,3,3V74.087z"/>
		<path fill="#52AF32" d="M165.418,74.087c0,2-1,3-3,3h-16.8c-1.334,0-2,0.667-2,2v20.601c0,2-1,3-3,3h-11.5c-2,0-3-1-3-3V46.087
			c0-3.532,1.266-6.583,3.8-9.149c2.533-2.565,5.601-3.851,9.2-3.851h23.3c2,0,3,1,3,3v11.5c0,2-1,3-3,3h-16.8c-1.334,0-2,0.667-2,2
			v5c0,1.334,0.666,2,2,2h16.8c2,0,3,1,3,3V74.087z"/>
		<path fill="#52AF32" d="M210.018,36.086v53.601c0,3.601-1.268,6.667-3.801,9.199c-2.533,2.534-5.6,3.801-9.199,3.801h-26.301
			c-2,0-3-1-3-3v-11.5c0-2,1-3,3-3h19.801c1.333,0,2-0.665,2-2v-1.7c0-1.332-0.667-2-2-2h-9.801c-3.6,0-6.667-1.279-9.199-3.84
			c-2.535-2.562-3.801-5.605-3.801-9.132V36.08c0-1.995,1-2.994,3-2.994h11.5c2,0,3,0.997,3,2.989v23.917
			c0,1.33,0.666,1.994,2,1.994h3.301c1.333,0,2-0.664,2-1.994V36.076c0-1.992,1-2.989,3-2.989h11.5
			C209.018,33.086,210.018,34.086,210.018,36.086z"/>
		<path fill="#52AF32" d="M244.717,36.086v53.601c0,3.601-1.284,6.667-3.85,9.199c-2.567,2.534-5.617,3.801-9.15,3.801h-16.399
			c-2,0-3-1-3-3v-11.5c0-2,1-3,3-3h9.899c1.333,0,2-0.665,2-2V36.086c0-2,1-3,3-3h11.5
			C243.717,33.086,244.717,34.086,244.717,36.086z"/>
		<path fill="#52AF32" d="M289.317,89.687c0,3.601-1.268,6.667-3.8,9.2c-2.534,2.533-5.601,3.8-9.2,3.8h-16.3
			c-3.601,0-6.667-1.267-9.2-3.8c-2.535-2.533-3.8-5.601-3.8-9.2V46.087c0-3.532,1.266-6.583,3.8-9.149
			c2.533-2.565,5.6-3.851,9.2-3.851h16.3c3.6,0,6.666,1.285,9.2,3.851c2.532,2.566,3.8,5.617,3.8,9.149V89.687z M271.817,83.187
			V52.587c0-1.333-0.667-2-2-2h-3.3c-1.334,0-2,0.667-2,2v30.601c0,1.335,0.666,2,2,2h3.3
			C271.149,85.187,271.817,84.521,271.817,83.187z"/>
		<path fill="#52AF32" d="M333.916,89.687c0,3.601-1.267,6.667-3.8,9.2c-2.534,2.533-5.6,3.8-9.2,3.8h-26.3c-2,0-3-1-3-3V36.087
			c0-2,1-3,3-3h26.3c3.601,0,6.666,1.285,9.2,3.851c2.533,2.566,3.8,5.617,3.8,9.149v14.301c0,2.066-0.733,3.834-2.2,5.3
			c-1.467,1.468-3.233,2.2-5.3,2.2c2.065,0,3.833,0.733,5.3,2.199c1.467,1.468,2.2,3.234,2.2,5.301V89.687z M316.416,60.187v-7.601
			c0-1.333-0.667-2-2-2h-3.3c-1.334,0-2,0.667-2,2v7.601c0,1.334,0.666,2,2,2h3.3C315.749,62.187,316.416,61.521,316.416,60.187z
			 M316.416,83.187v-7.601c0-1.333-0.667-2-2-2h-3.3c-1.334,0-2,0.667-2,2v7.601c0,1.335,0.666,2,2,2h3.3
			C315.749,85.187,316.416,84.521,316.416,83.187z"/>
		<path fill="#52AF32" d="M378.515,89.687c0,3.601-1.268,6.667-3.801,9.2s-5.6,3.8-9.199,3.8h-26.301c-2,0-3-1-3-3v-11.5
			c0-2,1-3,3-3h19.801c1.333,0,2-0.665,2-2v-4.7c0-1.266-0.667-1.899-2-1.899h-9.801c-3.6,0-6.667-1.266-9.199-3.8
			c-2.534-2.533-3.801-5.601-3.801-9.2v-17.5c0-3.532,1.267-6.583,3.801-9.149c2.532-2.565,5.601-3.851,9.199-3.851h26.301
			c2,0,3,1,3,3v11.5c0,2-1,3-3,3h-19.801c-1.334,0-2,0.667-2,2v4.601c0,1.134,0.565,1.767,1.7,1.899h10.101
			c3.601,0,6.666,1.268,9.199,3.801s3.801,5.6,3.801,9.199V89.687L378.515,89.687z"/>
	</g>
</g>
</svg>
