<?xml version="1.0" encoding="utf-8"?>
<!-- Generator: Adobe Illustrator 16.0.0, SVG Export Plug-In . SVG Version: 6.00 Build 0)  -->
<!DOCTYPE svg PUBLIC "-//W3C//DTD SVG 1.1//EN" "http://www.w3.org/Graphics/SVG/1.1/DTD/svg11.dtd">
<svg version="1.1" id="Layer_1" xmlns="http://www.w3.org/2000/svg" xmlns:xlink="http://www.w3.org/1999/xlink" x="0px" y="0px"
	 width="512px" height="512px" viewBox="0 0 512 512" enable-background="new 0 0 512 512" xml:space="preserve">
<path fill="#4DB848" d="M462.276,132.174h-95.435v-48.76c0-9.884-8.012-17.896-17.896-17.896H163.057
	c-9.884,0-17.897,8.012-17.897,17.896v48.76H49.725c-8.388,0-15.188,6.8-15.188,15.188v286.935c0,8.388,6.8,15.188,15.188,15.188
	h412.551c8.388,0,15.188-6.8,15.188-15.188V147.362C477.463,138.974,470.663,132.174,462.276,132.174z M171.274,92.312h169.453
	v39.862H171.274V92.312z M450,159.496v72.104L253.746,302.5L62,233.229v-73.733H450z M62,422.162v-159.72l188.302,68.107
	c1.145,0.415,2.3,0.578,3.444,0.547c1.145,0.031,2.3-0.132,3.445-0.547L450,260.812v161.351H62z"/>
</svg>
