<?xml version="1.0" encoding="utf-8"?>
<!-- Generator: Adobe Illustrator 16.0.0, SVG Export Plug-In . SVG Version: 6.00 Build 0)  -->
<!DOCTYPE svg PUBLIC "-//W3C//DTD SVG 1.1//EN" "http://www.w3.org/Graphics/SVG/1.1/DTD/svg11.dtd">
<svg version="1.1" id="Layer_1" xmlns="http://www.w3.org/2000/svg" xmlns:xlink="http://www.w3.org/1999/xlink" x="0px" y="0px"
	 width="512px" height="512px" viewBox="0 0 512 512" enable-background="new 0 0 512 512" xml:space="preserve">
<path fill="#19A800" stroke="#19A800" stroke-width="12" stroke-miterlimit="10" d="M255.716,480.947
	c-39.163,0-170.777-189.136-170.777-281.114c0-94.317,76.46-170.777,170.777-170.777c94.317,0,170.777,76.46,170.777,170.777
	C426.492,291.812,294.881,480.947,255.716,480.947z M255.716,45.345c-85.28,0.101-154.384,69.208-154.488,154.488
	c0,92.26,133.968,264.731,154.488,264.825c25.513,0,154.488-178.307,154.488-264.825C410.103,114.554,340.995,45.446,255.716,45.345
	z"/>
<path fill="#19A800" d="M256,106c-52.191,0-94.5,42.309-94.5,94.5c0,52.19,42.309,94.5,94.5,94.5c52.191,0,94.5-42.31,94.5-94.5
	C350.5,148.309,308.192,106,256,106z M256,266.5c-36.451,0-66-29.549-66-66s29.549-66,66-66c36.451,0,66,29.549,66,66
	S292.451,266.5,256,266.5z"/>
</svg>
