<?xml version="1.0" encoding="utf-8"?>
<!-- Generator: Adobe Illustrator 16.0.0, SVG Export Plug-In . SVG Version: 6.00 Build 0)  -->
<!DOCTYPE svg PUBLIC "-//W3C//DTD SVG 1.1//EN" "http://www.w3.org/Graphics/SVG/1.1/DTD/svg11.dtd">
<svg version="1.1" id="Layer_1" xmlns="http://www.w3.org/2000/svg" xmlns:xlink="http://www.w3.org/1999/xlink" x="0px" y="0px"
	 width="512px" height="512px" viewBox="0 0 512 512" enable-background="new 0 0 512 512" xml:space="preserve">
<g>
	<path fill="#FFFFFF" d="M407.888,312.932H355.09V267.58c0-5.029-4.076-9.105-9.105-9.105c-5.028,0-9.104,4.076-9.104,9.105v56.533
		c0,5.029,4.075,9.105,9.104,9.105c0.176,0,0.348-0.018,0.52-0.025c0.174,0.008,0.346,0.025,0.52,0.025h60.864
		c5.603,0,10.144-4.541,10.144-10.145C418.031,317.473,413.49,312.932,407.888,312.932z"/>
	<path fill="#FFFFFF" d="M348.123,200.435c-49.418,0-91.823,30.015-109.987,72.806l-22.586-18.929l75.234-63.053
		c4.066-4.066,5.731-9.61,5.032-14.903c0.117-1.527,0.173-3.12,0.173-4.769V61.025c0-10.599-8.072-19.191-18.152-19.191H51.926
		c-10.081,0-18.253,8.593-18.253,19.191v110.562c0,1.355,0.137,2.677,0.392,3.953c-1.191,5.677,0.406,11.822,4.814,16.23
		l75.234,63.053l-75.234,63.055c-4.337,4.336-5.964,10.356-4.88,15.957c-0.206,1.154-0.326,2.34-0.326,3.557v110.562
		c0,10.6,8.172,19.191,18.253,19.191h225.912c10.08,0,18.152-8.592,18.152-19.191v-20.603c15.753,7.656,33.441,11.952,52.134,11.952
		c65.963,0,119.436-53.473,119.436-119.436C467.559,253.906,414.086,200.435,348.123,200.435z M61.345,438.518l-0.207-93.181
		c1.016-0.662,1.981-1.436,2.874-2.327l75.533-75.533c3.492-3.492,5.223-8.076,5.201-12.653c0.023-4.578-1.708-9.162-5.201-12.655
		l-75.533-75.532c-0.893-0.893-1.858-1.666-2.875-2.329l0.208-93.846h206.882v93.543c-0.905,0.617-1.771,1.317-2.575,2.121
		l-75.533,75.533c-3.493,3.493-5.224,8.078-5.2,12.655c-0.022,4.578,1.709,9.16,5.2,12.652l75.533,75.533
		c0.804,0.804,1.67,1.504,2.575,2.121v93.898H61.345z M348.123,412.418c-19.338,0-37.286-5.938-52.134-16.08v-58.947
		c0-1.732-0.06-3.402-0.19-4.999c0.741-5.329-0.917-10.928-5.015-15.026l-30.782-25.799c11.959-37.267,46.883-64.247,88.121-64.247
		c51.113,0,92.551,41.437,92.551,92.548C440.674,370.98,399.237,412.418,348.123,412.418z"/>
</g>
</svg>
