<?xml version="1.0" encoding="utf-8"?>
<!-- Generator: Adobe Illustrator 16.0.0, SVG Export Plug-In . SVG Version: 6.00 Build 0)  -->
<!DOCTYPE svg PUBLIC "-//W3C//DTD SVG 1.1//EN" "http://www.w3.org/Graphics/SVG/1.1/DTD/svg11.dtd">
<svg version="1.1" id="Layer_1" xmlns="http://www.w3.org/2000/svg" xmlns:xlink="http://www.w3.org/1999/xlink" x="0px" y="0px"
	 width="512px" height="512px" viewBox="0 0 512 512" enable-background="new 0 0 512 512" xml:space="preserve">
<g>
	<path fill="#4DB848" d="M143.862,248.405c32.36,0,60.82-16.683,77.259-41.914h188.933c27.744,0,50.233-22.491,50.233-50.235
		c0-27.745-22.489-50.235-50.233-50.235H221.121c-16.439-25.231-44.899-41.915-77.259-41.915c-50.892,0-92.149,41.257-92.149,92.15
		C51.713,207.148,92.97,248.405,143.862,248.405z M232.967,132.694h167.751c13.012,0,23.562,10.549,23.562,23.562
		c0,13.013-10.55,23.562-23.562,23.562H232.967c1.984-7.521,3.045-15.417,3.045-23.562
		C236.012,148.111,234.951,140.215,232.967,132.694z M143.862,91.994c35.492,0,64.263,28.771,64.263,64.262
		c0,35.49-28.771,64.263-64.263,64.263c-35.489,0-64.262-28.772-64.262-64.263C79.6,120.765,108.373,91.994,143.862,91.994z"/>
	<path fill="#4DB848" d="M368.137,263.595c-32.358,0-60.818,16.684-77.258,41.915H101.948c-27.745,0-50.234,22.49-50.234,50.234
		c0,27.745,22.489,50.236,50.234,50.236h188.932c16.439,25.23,44.899,41.914,77.258,41.914c50.894,0,92.15-41.257,92.15-92.15
		C460.287,304.853,419.031,263.595,368.137,263.595z M279.033,379.307H111.282c-13.012,0-23.561-10.55-23.561-23.562
		s10.549-23.561,23.561-23.561h167.751c-1.984,7.521-3.045,15.417-3.045,23.561C275.989,363.89,277.049,371.785,279.033,379.307z
		 M368.137,420.008c-35.49,0-64.262-28.772-64.262-64.264c0-35.49,28.771-64.262,64.262-64.262s64.264,28.771,64.264,64.262
		C432.401,391.235,403.627,420.008,368.137,420.008z"/>
</g>
</svg>
