<?xml version="1.0" encoding="utf-8"?>
<!-- Generator: Adobe Illustrator 16.0.0, SVG Export Plug-In . SVG Version: 6.00 Build 0)  -->
<!DOCTYPE svg PUBLIC "-//W3C//DTD SVG 1.1//EN" "http://www.w3.org/Graphics/SVG/1.1/DTD/svg11.dtd">
<svg version="1.1" id="Layer_1" xmlns="http://www.w3.org/2000/svg" xmlns:xlink="http://www.w3.org/1999/xlink" x="0px" y="0px"
	 width="48px" height="48px" viewBox="0 0 48 48" enable-background="new 0 0 48 48" xml:space="preserve">
<path fill="none" d="M0,0h48v48H0V0z"/>
<path fill="#FFFFFF" d="M43.375,40.505L43.375,40.505l-0.009-0.008c-0.007-0.007-0.014-0.016-0.021-0.021L32.131,29.646
	c2.186-2.7,3.495-6.138,3.495-9.885c0-8.692-7.047-15.739-15.741-15.739c-8.691,0-15.738,7.047-15.738,15.739
	c0,8.691,7.047,15.737,15.738,15.737c2.94,0,5.691-0.806,8.048-2.21c0.634-0.378,1.237-0.801,1.811-1.261L40.979,42.87
	c0.001,0.001,0.001,0.001,0.001,0.002h0.002l0,0c0.304,0.305,0.724,0.491,1.188,0.491c0.932,0,1.684-0.752,1.684-1.684
	C43.854,41.225,43.672,40.81,43.375,40.505z M19.823,32.44c-6.965,0-12.614-5.649-12.614-12.614c0-6.964,5.648-12.613,12.614-12.613
	s12.613,5.649,12.613,12.613C32.436,26.791,26.788,32.44,19.823,32.44z"/>
</svg>
