<?xml version="1.0" encoding="utf-8"?>
<!-- Generator: Adobe Illustrator 16.0.0, SVG Export Plug-In . SVG Version: 6.00 Build 0)  -->
<!DOCTYPE svg PUBLIC "-//W3C//DTD SVG 1.1//EN" "http://www.w3.org/Graphics/SVG/1.1/DTD/svg11.dtd">
<svg version="1.1" id="Layer_1" xmlns="http://www.w3.org/2000/svg" xmlns:xlink="http://www.w3.org/1999/xlink" x="0px" y="0px"
	 width="512px" height="512px" viewBox="0 0 512 512" enable-background="new 0 0 512 512" xml:space="preserve">
<g>
	<path fill="#4DB848" stroke="#4DB848" stroke-width="6" stroke-miterlimit="10" d="M257.083,140.391
		c-30.918,0-59.91,12.029-81.685,33.804c-21.773,21.775-33.804,50.767-33.804,81.685c0,30.917,12.03,59.788,33.804,81.685
		c21.775,21.773,50.889,33.805,81.685,33.805c30.918,0,59.91-12.031,81.685-33.805c21.774-21.775,33.805-50.768,33.805-81.685
		c0-30.917-12.03-59.791-33.805-81.685C316.993,152.42,288.001,140.391,257.083,140.391z M257.083,352.121
		c-53.293,0-96.241-43.189-96.241-96.241c0-53.053,42.948-96.241,96.241-96.241s96.241,43.188,96.241,96.241
		C353.324,308.932,310.376,352.121,257.083,352.121z"/>
	<path fill="#4DB848" stroke="#4DB848" stroke-width="6" stroke-miterlimit="10" d="M458.828,207.759h-18.286
		c-14.918,0-27.428-12.511-27.428-27.91c0-7.699,3.247-14.556,9.021-19.729l11.79-11.549c11.669-11.548,11.669-30.315,0-41.985
		L407.099,80c-5.294-5.293-13.113-8.421-21.053-8.421c-7.94,0-15.639,3.127-21.053,8.421l-11.309,11.309
		c-5.414,6.015-12.872,9.263-20.692,9.263c-15.397,0-28.51-12.511-28.51-27.308V55.098c0-16.241-12.632-30.196-28.873-30.196
		h-36.571c-16.602,0-29.834,13.835-29.834,30.196v18.286c0,14.797-12.753,27.308-28.151,27.308c-7.699,0-14.677-3.248-19.969-8.902
		l-11.67-11.548c-5.293-5.414-13.113-8.422-21.053-8.422s-15.639,3.128-21.053,8.422l-26.826,26.466
		c-11.55,11.549-11.55,30.436,0,41.864l11.307,11.309c6.015,5.414,9.384,12.271,9.384,20.09c0,15.399-12.512,27.91-27.429,27.91
		H55.46c-16.481-0.121-30.316,13.353-30.316,29.713v18.287v18.286c0,16.24,13.835,29.834,30.316,29.834h18.285
		c14.917,0,27.429,12.512,27.429,27.91c0,7.699-3.369,14.797-9.384,20.211l-11.307,11.066c-11.55,11.549-11.55,30.316,0,41.865
		l26.826,26.707c5.294,5.412,13.113,8.42,21.053,8.42s15.64-3.127,21.053-8.42l11.67-11.549c5.053-5.654,12.149-8.902,19.85-8.902
		c15.398,0,28.149,12.512,28.149,27.309v18.285c0,16.24,13.233,30.195,29.714,30.195h36.572c16.36,0,29.954-13.834,29.954-30.195
		v-18.285c0-14.797,12.632-27.309,28.03-27.309c7.699,0,14.798,3.369,20.331,9.264l11.309,11.307
		c5.414,5.293,13.112,8.422,21.053,8.422c7.939,0,15.639-3.129,21.053-8.422l26.827-26.705c11.548-11.549,11.548-30.438,0-41.986
		l-11.79-11.549c-5.775-5.174-9.021-12.512-9.021-20.09c0-15.398,12.51-28.393,27.428-28.393h18.285
		c16.361,0,28.03-12.389,28.03-28.75V255.88v-18.287C486.858,221.233,475.189,207.759,458.828,207.759z M467.851,255.88v18.165
		c0,5.053-2.768,9.504-8.783,9.504h-18.284c-12.391,0-24.182,5.295-33.083,14.438c-8.782,9.021-13.594,20.932-13.594,33.441
		c0,12.994,5.293,25.023,15.037,33.926l11.429,11.309c3.97,4.09,3.97,10.828,0,14.797l-26.828,26.707
		c-1.924,1.805-4.69,2.887-7.579,2.887c-2.886,0-5.773-1.082-7.578-2.887l-10.946-10.949c-9.264-9.744-21.415-15.156-34.286-15.156
		c-12.512,0-24.061,4.811-33.083,13.475c-9.144,8.9-13.956,20.57-13.956,33.082v18.285c0,5.895-5.172,10.947-10.706,10.947h-36.571
		c-5.533,0-10.467-5.053-10.467-10.947v-18.285c0-12.391-4.932-24.182-14.075-33.082c-9.022-8.664-20.812-13.475-33.203-13.475
		c-12.751,0-25.022,5.412-33.804,14.916l-11.189,11.189c-1.924,1.805-4.69,2.887-7.579,2.887c-2.886,0-5.774-0.963-7.338-2.646
		l-0.121-0.119l-0.12-0.121l-26.827-26.707c-3.97-3.969-3.97-10.586,0-14.676l10.947-10.828
		c9.865-9.143,15.278-21.295,15.278-34.285c0-12.512-4.812-23.941-13.594-32.963c-8.902-9.143-20.692-13.834-33.083-13.834H55.46
		c-6.016,0-11.068-5.174-11.068-10.588V255.88v-18.287c0-5.413,5.053-10.586,11.068-10.586h18.285
		c12.392,0,24.181-4.692,33.083-13.835c8.783-9.022,13.595-20.691,13.595-33.082c0-12.992-5.413-25.143-15.278-34.166
		l-11.067-10.948c-2.647-2.646-3.008-5.654-3.008-7.338c0-1.563,0.36-4.692,3.008-7.338l26.707-26.586
		c1.924-1.805,4.69-2.888,7.578-2.888s5.774,0.962,7.338,2.646l0.121,0.121l0.12,0.121l11.309,11.308
		c8.901,9.624,20.932,14.917,33.804,14.917c12.512,0,24.181-4.812,33.203-13.475c9.143-8.902,14.196-20.57,14.196-33.082V55.098
		c0-5.895,4.812-10.948,10.225-10.948h36.692c5.413,0,9.624,5.053,9.624,10.948v18.286c0,12.391,5.292,24.18,14.436,33.082
		c9.023,8.662,20.933,13.475,33.444,13.475c12.991,0,25.263-5.414,34.405-15.159l10.948-10.947c1.925-1.805,4.69-2.887,7.578-2.887
		s5.774,1.083,7.579,2.767l26.827,26.586c1.925,1.925,3.128,4.572,3.128,7.338c0,2.767-1.083,5.414-3.008,7.338l-11.428,11.308
		c-9.624,8.902-15.038,20.932-15.038,33.925c0,12.511,4.812,23.94,13.594,32.962c8.901,9.143,20.692,13.835,33.083,13.835h18.285
		c6.496,0,8.902,6.015,9.022,10.827L467.851,255.88L467.851,255.88z"/>
</g>
</svg>
