<?xml version="1.0" encoding="utf-8"?>
<!-- Generator: Adobe Illustrator 16.0.0, SVG Export Plug-In . SVG Version: 6.00 Build 0)  -->
<!DOCTYPE svg PUBLIC "-//W3C//DTD SVG 1.1//EN" "http://www.w3.org/Graphics/SVG/1.1/DTD/svg11.dtd">
<svg version="1.1" id="Layer_1" xmlns="http://www.w3.org/2000/svg" xmlns:xlink="http://www.w3.org/1999/xlink" x="0px" y="0px"
	 width="512px" height="512px" viewBox="0 0 512 512" enable-background="new 0 0 512 512" xml:space="preserve">
<g>
	<path fill="#FFFFFF" d="M447.658,221.392H344.334v28.204h86.336c3.131,0,5.67,2.538,5.67,5.669v60.424v2.029v122.428
		c0,3.131-2.539,5.669-5.67,5.669H81.33c-3.131,0-5.669-2.538-5.669-5.669V317.718v-2.029v-60.424c0-3.131,2.538-5.669,5.669-5.669
		h86.337v-28.204H64.342c-9.393,0-17.008,7.614-17.008,17.007v77.29v2.029v139.297c0,9.394,7.615,17.008,17.008,17.008h383.317
		c9.395,0,17.008-7.614,17.008-17.008V317.718v-2.029v-77.29C464.666,229.006,457.053,221.392,447.658,221.392z"/>
	<path fill="#FFFFFF" d="M159.514,172.197l80.82-80.819v97.338v48.333v103.665c0,8.652,7.015,15.667,15.667,15.667
		c8.652,0,15.666-7.015,15.666-15.667V237.048v-48.333V91.379l80.82,80.819c6.117,6.117,16.037,6.117,22.156-0.001
		s6.117-16.038,0-22.155l-107.48-107.48c-3.082-3.081-7.125-4.606-11.163-4.585c-4.037-0.021-8.081,1.504-11.162,4.584
		l-107.48,107.48c-6.117,6.118-6.117,16.038,0.001,22.156C143.477,178.316,153.397,178.315,159.514,172.197z"/>
</g>
</svg>
