<?xml version="1.0" encoding="utf-8"?>
<!-- Generator: Adobe Illustrator 16.0.0, SVG Export Plug-In . SVG Version: 6.00 Build 0)  -->
<!DOCTYPE svg PUBLIC "-//W3C//DTD SVG 1.1//EN" "http://www.w3.org/Graphics/SVG/1.1/DTD/svg11.dtd">
<svg version="1.1" id="Layer_1" xmlns="http://www.w3.org/2000/svg" xmlns:xlink="http://www.w3.org/1999/xlink" x="0px" y="0px"
	 width="512px" height="512px" viewBox="0 0 512 512" enable-background="new 0 0 512 512" xml:space="preserve">
<path fill="#555555" d="M426.896,48.215c0-2.178-1.766-3.944-3.944-3.944H87.614c-2.178,0-3.944,1.766-3.944,3.944L31.663,198.888
	v3.75v0.722c1.136,23.195,12.378,43.4,29.279,57.129v206.297c0,2.179,1.766,3.944,3.944,3.944h381.719
	c2.179,0,3.944-1.766,3.944-3.944v-205.81c11.134-8.868,19.827-20.67,24.895-34.25l2.297-6.901l1.144-5.241
	c1.06-3.746,1.276-7.997,1.451-12.13 M86.349,446.174v-51.025h339.515v51.025H86.349z M425.865,370.103H86.349v-95.799
	c7.68,2.488,15.866,3.854,24.376,3.854c32.52,0,60.443-19.633,72.588-47.69c12.145,28.058,40.068,47.69,72.587,47.69
	c32.66,0,60.683-19.804,72.742-48.055c12.061,28.251,40.082,48.055,72.743,48.055c8.546,0,16.772-1.36,24.479-3.869V370.103z
	 M401.387,252.415c-27.503,0-50.117-20.824-53-47.561c-0.012-10.881-8.836-19.699-19.72-19.699c-10.81,0-19.578,8.701-19.708,19.48
	h-0.028c-2.782,26.843-25.45,47.78-53.028,47.78c-27.544,0-50.188-20.886-53.016-47.681h0.003c0-10.813-8.767-19.579-19.579-19.579
	c-10.813,0-19.579,8.766-19.579,19.579h0.01c-2.827,26.795-25.471,47.681-53.016,47.681c-29.213,0-53.171-23.49-53.562-52.611l0,0
	l44.37-128.549c0-1.95,1.582-3.532,3.532-3.532h300.255c1.95,0,3.531,1.582,3.531,3.532l45.797,130.106
	C453.448,229.756,430.077,252.415,401.387,252.415z"/>
</svg>
