<?xml version="1.0" encoding="utf-8"?>
<!-- Generator: Adobe Illustrator 16.0.0, SVG Export Plug-In . SVG Version: 6.00 Build 0)  -->
<!DOCTYPE svg PUBLIC "-//W3C//DTD SVG 1.1//EN" "http://www.w3.org/Graphics/SVG/1.1/DTD/svg11.dtd">
<svg version="1.1" id="Layer_1" xmlns="http://www.w3.org/2000/svg" xmlns:xlink="http://www.w3.org/1999/xlink" x="0px" y="0px"
	 width="512px" height="512px" viewBox="0 0 512 512" enable-background="new 0 0 512 512" xml:space="preserve">
<path fill="#4DB848" d="M117.105,482.31c-3.111,0-6.206-0.966-8.819-2.865c-4.619-3.356-6.932-9.044-5.967-14.671l25.812-150.457
	L18.804,207.748c-4.088-3.985-5.56-9.946-3.796-15.376c1.765-5.43,6.459-9.388,12.109-10.209l151.086-21.954l67.561-136.905
	c2.527-5.12,7.741-8.362,13.451-8.362s10.924,3.242,13.451,8.362l67.563,136.905l151.087,21.954
	c5.65,0.821,10.345,4.779,12.108,10.209c1.765,5.43,0.293,11.391-3.795,15.376L390.303,314.316l25.812,150.457
	c0.965,5.627-1.348,11.314-5.967,14.671c-4.618,3.354-10.741,3.8-15.796,1.143l-135.136-71.028l-135.133,71.028
	C121.889,481.74,119.492,482.31,117.105,482.31z M259.216,377.612c2.397,0,4.794,0.574,6.979,1.723l115.213,60.558l-22.006-128.276
	c-0.835-4.866,0.778-9.831,4.314-13.277l93.21-90.858l-128.813-18.717c-4.886-0.71-9.109-3.779-11.294-8.206l-57.603-116.72
	l-57.6,116.72c-2.185,4.427-6.408,7.496-11.294,8.206L61.508,207.48l93.212,90.858c3.535,3.446,5.148,8.411,4.314,13.277
	l-22.007,128.275l115.21-60.557C254.421,378.187,256.818,377.612,259.216,377.612z"/>
</svg>
